<svg width="19" height="17" viewBox="0 0 19 17" fill="none" xmlns="http://www.w3.org/2000/svg">
<path d="M9.03442 16.8583L1.54017 9.16111C1.22127 8.85417 0.970698 8.5 0.74291 8.12222C-0.48715 6.02083 -0.168246 3.32917 1.54017 1.58194C2.51966 0.566667 3.84084 0 5.23035 0C7.41712 0 8.78386 1.32222 9.35333 2.07778C9.9228 1.32222 11.2895 0 13.4763 0C14.8658 0 16.187 0.566667 17.1665 1.58194C18.8521 3.32917 19.1938 6.02083 17.9637 8.12222C17.736 8.5 17.4854 8.85417 17.1665 9.16111L9.67223 16.8583C9.49 17.0472 9.21665 17.0472 9.03442 16.8583ZM5.23035 0.944444C4.06863 0.944444 2.99802 1.41667 2.17798 2.24306C0.788467 3.68333 0.515121 5.90278 1.51739 7.62639C1.69962 7.93333 1.92741 8.24028 2.17798 8.5L9.35333 15.8667L16.5287 8.5C16.7792 8.24028 17.007 7.95694 17.1893 7.62639C18.1915 5.87917 17.941 3.65972 16.5287 2.24306C15.7086 1.41667 14.6152 0.944444 13.4763 0.944444C11.8362 0.944444 10.4695 1.86528 9.74057 3.14028C9.55834 3.44722 9.12554 3.44722 8.94331 3.14028C8.23716 1.86528 6.87043 0.944444 5.23035 0.944444Z" fill="black"/>
</svg>
