<svg width="19" height="17" viewBox="0 0 19 17" fill="none" xmlns="http://www.w3.org/2000/svg">
<path d="M5.41574 0.470758C4.03822 0.398909 2.65662 0.851288 1.63974 1.84918C-0.395365 3.8503 -0.182499 7.20855 1.99497 9.34804L2.69052 10.0306L9.01142 16.2388C9.13849 16.3632 9.3106 16.433 9.49003 16.433C9.66946 16.433 9.84157 16.3632 9.96864 16.2388L16.2868 10.0306L16.9824 9.34804C19.1598 7.20855 19.3714 3.8503 17.3349 1.85051C15.2998 -0.149269 11.8844 0.0636162 9.70832 2.20177L9.48867 2.41732L9.26903 2.20177C8.18029 1.1307 6.79463 0.542606 5.41574 0.470758Z" fill="#E32F2F"/>
<path d="M9.17936 16.525L1.56488 8.97999C1.24086 8.67912 0.986271 8.33195 0.754828 7.96165C-0.494965 5.9018 -0.170945 3.26335 1.56488 1.55067C2.56008 0.555464 3.90246 0 5.31426 0C7.53611 0 8.92477 1.29608 9.50338 2.0367C10.082 1.29608 11.4706 0 13.6925 0C15.1043 0 16.4467 0.555464 17.4419 1.55067C19.1546 3.26335 19.5017 5.9018 18.2519 7.96165C18.0205 8.33195 17.7659 8.67912 17.4419 8.97999L9.8274 16.525C9.64225 16.7102 9.36451 16.7102 9.17936 16.525ZM5.31426 0.925773C4.1339 0.925773 3.04612 1.38866 2.21292 2.19871C0.801117 3.61051 0.523385 5.78608 1.54173 7.47561C1.72689 7.77649 1.95833 8.07737 2.21292 8.33195L9.50338 15.553L16.7938 8.33195C17.0484 8.07737 17.2799 7.79963 17.465 7.47561C18.4834 5.76293 18.2288 3.58737 16.7938 2.19871C15.9606 1.38866 14.8497 0.925773 13.6925 0.925773C12.0261 0.925773 10.6375 1.8284 9.89683 3.07819C9.71168 3.37907 9.27194 3.37907 9.08678 3.07819C8.36931 1.8284 6.98065 0.925773 5.31426 0.925773Z" fill="black"/>
</svg>
