<svg width="38" height="38" viewBox="0 0 38 38" fill="none" xmlns="http://www.w3.org/2000/svg">
    <defs>
        <clipPath id="clip0_340_2549">
            <rect width="38" height="38" fill="white"/>
        </clipPath>
    </defs>
    <g clip-path="url(#clip0_340_2549)">
        <path d="M1.5755 18.3872C1.5755 14.862 1.58264 11.3365 1.56643 7.81128C1.56423 7.34017 1.70598 7.00229 2.04166 6.67265C3.61487 5.12884 5.16912 3.56553 6.72007 1.99946C6.99614 1.72064 7.27853 1.56626 7.68976 1.56764C12.1426 1.5822 16.5955 1.57725 21.0487 1.58439C21.7901 1.58549 22.5276 1.62285 23.2548 1.81212C24.0813 2.02748 24.5656 2.55216 24.7585 3.36005C24.9414 4.12591 24.9804 4.90963 24.9815 5.69362C24.9859 9.40454 24.9925 13.1152 24.9763 16.8261C24.9744 17.2986 25.0486 17.4142 25.5699 17.3543C31.7457 16.6448 36.7683 21.5317 36.2555 27.7196C35.7956 33.2677 30.2497 37.3129 24.7994 36.0831C22.4768 35.5589 20.585 34.3654 19.1623 32.4587C18.923 32.1381 18.6895 32.0291 18.3006 32.0302C14.1155 32.0433 9.93076 32.0422 5.74571 32.031C5.10841 32.0293 4.46836 31.9821 3.83435 31.9129C2.58227 31.7761 1.96914 31.1802 1.72631 29.9433C1.56616 29.1271 1.57962 28.3022 1.57769 27.4789C1.5711 24.4485 1.57495 21.418 1.57495 18.3875L1.5755 18.3872ZM18.0877 30.8437C18.0786 30.7036 18.0871 30.6589 18.072 30.6245C15.8412 25.5297 18.3764 19.7511 23.4424 17.8708C23.7858 17.7433 23.794 17.5431 23.7935 17.2629C23.7874 13.16 23.7959 9.05704 23.7795 4.95441C23.772 3.0892 23.4778 2.77796 21.6297 2.76835C17.2383 2.745 12.8467 2.76175 8.45534 2.74555C8.06088 2.74417 7.97215 2.87273 7.97572 3.24138C7.98671 4.37479 7.98643 5.50957 7.94166 6.64188C7.90677 7.52861 7.51999 7.9088 6.62365 7.94231C5.51167 7.98379 4.39721 7.99011 3.28495 7.96649C2.83774 7.95687 2.74379 8.11043 2.74462 8.52852C2.75835 15.1672 2.75121 21.8061 2.76082 28.4448C2.76385 30.5734 3.02783 30.8322 5.14384 30.8366C9.28796 30.8451 13.4321 30.8424 17.5759 30.8443C17.7388 30.8443 17.9014 30.8443 18.0874 30.8443L18.0877 30.8437ZM26.7794 18.4474C22.1642 18.4542 18.4445 22.1728 18.4464 26.7782C18.4484 31.3786 22.1909 35.126 26.7786 35.1216C31.3669 35.1172 35.1122 31.3706 35.1199 26.7776C35.1273 22.1934 31.3702 18.4408 26.7792 18.4476L26.7794 18.4474ZM6.8033 3.90698C5.8262 4.84508 4.80761 5.82301 3.78463 6.80533C4.61202 6.80533 5.44958 6.80368 6.28714 6.80615C6.58272 6.80725 6.81154 6.75891 6.80687 6.37817C6.79616 5.50435 6.80358 4.63026 6.80358 3.90698H6.8033Z" fill="#070707"/>
        <path d="M13.2505 11.6552C11.1507 11.6552 9.05065 11.6495 6.95085 11.6602C6.51243 11.6624 6.11604 11.5841 6.11137 11.0786C6.1067 10.5704 6.50776 10.4845 6.94233 10.4847C11.1628 10.4894 15.3833 10.4878 19.6038 10.4872C20.0197 10.4872 20.432 10.5232 20.4328 11.071C20.4339 11.6132 20.037 11.6585 19.6123 11.6574C17.4919 11.6528 15.3712 11.6552 13.2508 11.6552H13.2505Z" fill="#070707"/>
        <path d="M11.7017 16.41C10.0942 16.41 8.48638 16.41 6.87884 16.41C6.57914 16.41 6.30389 16.3701 6.15555 16.0509C6.05556 15.8358 6.09951 15.6477 6.2267 15.4713C6.37284 15.2683 6.58793 15.2241 6.82637 15.2244C10.0623 15.2268 13.298 15.2282 16.534 15.2233C16.943 15.2227 17.2567 15.376 17.2721 15.7933C17.2894 16.257 16.9548 16.413 16.5249 16.4122C14.9174 16.4083 13.3096 16.4105 11.702 16.4105L11.7017 16.41Z" fill="#070707"/>
        <path d="M10.1549 21.1573C9.06326 21.1573 7.9716 21.1502 6.88022 21.1609C6.44949 21.165 6.11326 21.0224 6.11134 20.5637C6.10941 20.0989 6.46295 19.9624 6.88159 19.9626C9.06463 19.9643 11.2477 19.9637 13.431 19.9632C13.8469 19.9632 14.2043 20.0989 14.2001 20.5645C14.1963 21.0219 13.8603 21.165 13.4293 21.1606C12.3379 21.1496 11.2463 21.157 10.1546 21.157L10.1549 21.1573Z" fill="#070707"/>
        <path d="M9.5967 24.7271C10.5027 24.7271 11.4089 24.7359 12.3146 24.7232C12.7404 24.7174 13.0859 24.8397 13.092 25.3064C13.098 25.7792 12.7519 25.894 12.3261 25.8921C10.5142 25.883 8.702 25.883 6.89008 25.8921C6.4676 25.8943 6.11186 25.7871 6.10939 25.3166C6.10692 24.8523 6.45002 24.7183 6.87855 24.7238C7.78451 24.735 8.69046 24.7273 9.59642 24.7273L9.5967 24.7271Z" fill="#070707"/>
        <path d="M27.3865 28.2245C26.5827 28.2245 25.777 28.1897 24.976 28.2358C24.3505 28.2718 24.0942 28.0064 23.9731 27.4227C23.7225 26.2148 23.4055 25.0207 23.1424 23.8153C23.0523 23.4019 22.9174 23.1371 22.4273 23.2264C22.2284 23.2627 22.0133 23.2489 21.8114 23.2187C21.492 23.1712 21.2832 22.9855 21.2793 22.6418C21.2755 22.2971 21.484 22.0776 21.7994 22.0584C22.3738 22.0235 22.9539 22.0216 23.528 22.0614C23.9637 22.0916 24.0398 22.4803 24.1211 22.8256C24.4137 24.067 24.7183 25.3056 24.9864 26.5525C25.0647 26.9159 25.185 27.0697 25.5869 27.0604C26.7813 27.0318 27.9773 27.0389 29.1723 27.0571C29.5234 27.0623 29.6824 26.9774 29.7264 26.5959C29.8132 25.8402 29.9327 25.0853 30.0969 24.3428C30.1914 23.9153 30.0348 23.8818 29.6808 23.887C28.5064 23.9049 27.3315 23.887 26.1572 23.8969C25.719 23.9005 25.3424 23.8236 25.3498 23.2915C25.3567 22.7921 25.7284 22.7231 26.1344 22.724C27.6386 22.7273 29.1432 22.7196 30.6474 22.7281C31.3358 22.7319 31.524 22.9663 31.4133 23.6604C31.2125 24.9205 30.9911 26.1772 30.8007 27.4386C30.7158 28.002 30.4623 28.2647 29.859 28.235C29.0369 28.1946 28.2108 28.2248 27.3867 28.2248L27.3865 28.2245Z" fill="#070707"/>
        <path d="M26.5149 30.6153C26.5121 31.6091 25.7498 32.3698 24.7604 32.3659C23.786 32.3621 23.0064 31.5737 23.0127 30.5985C23.0191 29.6192 23.8044 28.8385 24.7763 28.8454C25.7564 28.8522 26.5179 29.6272 26.5152 30.6153H26.5149ZM24.7692 31.1924C25.0914 31.1493 25.3331 30.9694 25.3405 30.6177C25.3471 30.3016 25.1554 30.078 24.82 30.0527C24.4563 30.0249 24.2244 30.2244 24.1981 30.5743C24.1711 30.9309 24.4024 31.1226 24.7692 31.1927V31.1924Z" fill="#070707"/>
        <path d="M27.9396 30.6353C27.9283 29.6469 28.6988 28.8541 29.679 28.845C30.6547 28.8363 31.4469 29.6288 31.4442 30.6108C31.4414 31.597 30.6539 32.3779 29.6713 32.3686C28.7107 32.3595 27.9506 31.5986 27.9396 30.6353ZM29.6507 30.0378C29.3257 30.0809 29.1106 30.2817 29.123 30.6347C29.1342 30.9542 29.3403 31.1723 29.6699 31.1772C30.0254 31.1825 30.2575 30.9635 30.263 30.6155C30.2685 30.2639 30.0408 30.0666 29.6507 30.0381V30.0378Z" fill="#070707"/>
    </g>
</svg>
