<svg width="61" height="90" viewBox="0 0 61 90" fill="none" xmlns="http://www.w3.org/2000/svg">
    <path d="M14.0707 78.1612H13.8769C13.7384 76.6938 12.4925 75.5692 11.0112 75.5692H7.89627V79.6835C7.89627 80.1772 8.29775 80.5749 8.79613 80.5749H9.82058C10.8035 80.5749 11.5926 79.7795 11.5926 78.8058H11.8003V82.5361H11.5926C11.5926 82.0423 11.3988 81.6035 11.0804 81.2881C10.7481 80.9589 10.3051 80.7669 9.80674 80.7669H8.79613C8.29775 80.7669 7.89627 81.1646 7.89627 81.6583V84.5658C7.89627 85.2378 8.43619 85.7863 9.11454 85.7863V85.9783H5.55664V85.7726C5.90274 85.7726 6.20731 85.6492 6.42881 85.4298C6.65031 85.2103 6.78875 84.8949 6.78875 84.5658V76.7898C6.78875 76.1178 6.235 75.5692 5.55664 75.5692V75.3772H13.8215L14.0707 78.1612ZM23.0907 85.5532C23.2983 85.704 23.5475 85.7863 23.8106 85.7863V85.9783H20.045V85.7863C20.751 85.7863 21.2494 85.0732 21.0002 84.4149L19.8235 81.3155C19.6712 80.904 19.1451 80.7806 18.8267 81.0961L15.2688 84.6206C15.1442 84.7441 15.075 84.9223 15.075 85.0869C15.075 85.2926 15.1719 85.4983 15.3519 85.6218C15.4211 85.6766 15.5042 85.7178 15.5872 85.7452C15.6703 85.7726 15.7534 85.7863 15.8503 85.7863V85.9783H13.2199V85.7863C13.7875 85.7863 14.2859 85.4298 14.4797 84.9086L17.5116 76.7349C17.5392 76.6389 17.5669 76.5429 17.5669 76.4469C17.5669 75.9806 17.1793 75.5692 16.6809 75.5692V75.3772H19.0344L22.62 84.9635C22.7169 85.2103 22.883 85.416 23.0907 85.5532ZM19.0206 80.6435C19.2697 80.3966 19.339 80.0263 19.2282 79.6972L17.913 76.2138L15.1166 83.7703C15.0058 84.0446 15.3519 84.2641 15.5596 84.0583L19.0206 80.6435ZM31.6573 78.1612C31.5188 76.7212 30.3144 75.6103 28.8608 75.5692H28.0579V84.5658C28.0579 85.2378 28.5978 85.7863 29.2761 85.7863V85.9783H25.7182V85.7863C26.0505 85.7863 26.355 85.6492 26.5765 85.4298C26.7981 85.2103 26.9365 84.8949 26.9365 84.5658V75.5692H26.1335C24.6799 75.6103 23.4755 76.7212 23.3371 78.1612H23.1432L23.2125 77.3795L23.3924 75.3772H31.6019L31.7819 77.3795L31.8511 78.1612H31.6573ZM34.879 85.7863H38.1877C39.669 85.7863 40.9149 84.6618 41.0534 83.1943H41.2472L40.998 85.9783H32.5393V85.7726C32.8854 85.7726 33.19 85.6492 33.4115 85.4298C33.633 85.2103 33.7714 84.8949 33.7714 84.5658V76.7898C33.7714 76.1178 33.2177 75.5692 32.5393 75.5692V75.3772H40.8042L41.0534 78.1612H40.8596C40.7211 76.6938 39.4752 75.5692 37.9938 75.5692H34.879V79.6835C34.879 80.1772 35.2804 80.5749 35.7788 80.5749H36.9002C37.8831 80.5749 38.6722 79.7795 38.6722 78.8058H38.8799V82.5361H38.6722C38.6722 81.5623 37.8831 80.7669 36.9002 80.7669H35.7788C35.2804 80.7669 34.879 81.1646 34.879 81.6583V85.7863ZM55.5193 85.7863V85.9783H51.9475V85.7863C52.2936 85.7863 52.5982 85.6492 52.8197 85.4298C53.0412 85.2103 53.1796 84.9086 53.1796 84.5658V76.7212C53.1796 76.4881 52.8612 76.4195 52.7643 76.6252L48.2789 85.896C48.265 85.9235 48.2512 85.9372 48.2235 85.9509C48.1958 85.9646 48.1681 85.9783 48.1404 85.9783C48.0851 85.9783 48.0297 85.9372 48.0158 85.8823L44.2364 76.6389C44.1395 76.4058 43.7934 76.4743 43.7934 76.7212V84.5658C43.7934 84.9086 43.9319 85.2103 44.1534 85.4298C44.3749 85.6492 44.6933 85.7863 45.0255 85.7863V85.9783H42.3815V85.7863C43.0599 85.7863 43.6135 85.2378 43.6135 84.5658V76.7898C43.6135 76.4469 43.475 76.1452 43.2537 75.9258C43.0322 75.7063 42.7276 75.5692 42.3815 75.5692V75.3772H45.0809L48.265 83.1943C48.4589 83.6743 49.1511 83.7018 49.3864 83.2218L53.1796 75.3772H55.5193V75.5692C55.1732 75.5692 54.8686 75.7063 54.6471 75.9258C54.4256 76.1452 54.2872 76.4469 54.2872 76.7898V84.5658C54.2872 85.2378 54.8409 85.7863 55.5193 85.7863Z" fill="#1E1E1E"/>
    <path d="M38.7127 0C38.5041 5.75421 38.6132 11.0069 37.0634 16.315C38.5749 15.8901 39.1408 14.6265 40.1704 13.9504C42.2184 12.605 44.8034 12.0873 45.7898 13.216C47.2611 14.9002 46.3119 16.629 45.4934 18.2431C44.4136 20.3705 42.5507 21.6342 40.4423 22.6745C37.6426 24.0557 34.5084 24.5003 31.7168 25.8699C31.0116 26.2159 30.1412 26.3553 29.7905 27.2161C29.8966 27.3022 29.9843 27.3949 30.0911 27.4563C31.2592 28.1257 33.3293 27.614 33.3492 29.7829C33.3669 31.7869 31.2732 34.6611 29.4691 35.178C27.9812 35.6043 26.4631 35.9262 24.9708 36.3387C20.1313 37.6755 16.9425 40.4664 16.1908 45.6733C15.3927 51.2019 15.3205 56.7699 14.9446 62.3216C14.8496 63.7256 14.7338 65.1279 14.6167 66.5306C14.5916 66.834 14.7125 67.2476 14.2172 67.3041C13.7684 67.3556 13.6358 67.0577 13.6461 66.6887C13.8834 58.3539 12.5495 49.8613 15.8356 41.8214C17.4016 37.9901 20.0657 34.9757 23.9037 33.1397C25.1712 32.5337 25.9649 31.7183 26.514 30.3261C27.4978 27.8308 29.1618 25.837 31.408 24.1112C34.1465 22.0072 35.9388 19.0425 36.1113 15.3981C36.2572 12.3144 36.3964 9.22997 36.5645 6.147C36.6765 4.10286 37.4459 2.26825 38.7134 0H38.7127ZM34.6934 22.2846C37.4157 21.4881 40.1261 20.7654 42.6259 19.4856C43.4579 19.0593 44.4529 18.5205 43.9554 17.4043C43.5116 16.4092 42.533 16.1318 41.3944 16.3618C38.0236 17.0422 36.2734 19.5258 34.6934 22.2846Z" fill="#1E1E1E"/>
    <path d="M35.8446 29.3032C35.7517 32.5578 35.2669 35.7707 35.3288 39.0143C35.384 41.895 35.2263 44.7861 35.4113 47.6566C35.7171 52.3936 39.8087 54.4122 43.7567 51.8776C44.3779 51.4782 44.9711 51.0243 45.2228 50.2679C45.3526 49.8779 45.4941 49.4935 45.1826 49.1416C44.8776 48.7971 44.557 49.0949 44.2737 49.1961C42.7697 49.7356 41.2914 49.8359 40.2037 48.4829C39.144 47.1651 39.9472 45.8095 40.4285 44.5028C40.5206 44.2525 40.6436 44.0099 40.7807 43.7802C41.5198 42.5382 42.0026 40.9102 43.963 41.2548C45.8142 41.5797 46.5995 42.9201 46.9702 44.6211C48.0375 49.5111 45.3795 55.7061 41.3769 57.5905C37.1416 59.5842 33.4127 57.4692 33.2977 52.8196C33.1149 45.4636 32.8408 38.0842 34.8762 30.8736C35.0421 30.2859 35.1696 29.7186 35.8446 29.3047V29.3032Z" fill="#1E1E1E"/>
    <path d="M47.5735 34.737C47.5722 35.513 45.522 37.8638 44.7831 37.9368C44.3864 37.9755 41.7363 35.6583 41.7179 35.2575C41.698 34.8129 44.3024 31.9489 44.7614 31.9103C45.4969 31.8482 47.5748 33.9369 47.5735 34.737Z" fill="#1E1E1E"/>
    <path d="M16.5095 24.4024C16.5095 22.4343 17.6452 20.7384 18.9215 20.7478C20.946 20.7625 20.8531 22.5087 21.069 23.7352C21.3417 25.288 20.1213 26.5261 18.6334 26.4736C17.2133 26.4232 16.3452 25.7713 16.5103 24.4024H16.5095ZM20.2798 23.549C20.4279 22.6627 19.6394 22.4488 18.9142 22.3685C17.9782 22.2649 17.2693 22.9752 17.1551 23.6965C17.0446 24.393 17.7166 25.0055 18.6025 24.958C19.4212 24.9142 20.2577 24.8405 20.2805 23.549H20.2798Z" fill="#1E1E1E"/>
    <path d="M46.6931 24.834C44.8726 26.8817 42.356 27.7928 39.9307 28.8631C41.7635 26.8526 44.2263 25.8458 46.6931 24.834Z" fill="#1E1E1E"/>
</svg>
