<svg width="79" height="158" viewBox="0 0 79 158" fill="none" xmlns="http://www.w3.org/2000/svg">
    <path d="M58.4845 0C58.0024 13.4265 58.2546 25.6827 54.6722 38.0684C58.166 37.077 59.4742 34.1284 61.8539 32.551C66.5878 29.4116 72.5634 28.2038 74.8426 30.8374C78.2444 34.7672 76.0504 38.8009 74.1579 42.5672C71.6623 47.5311 67.356 50.4797 62.4825 52.9071C56.0111 56.13 48.7664 57.1674 42.3138 60.3631C40.6836 61.1705 38.6718 61.4958 37.861 63.5042C38.1063 63.7052 38.309 63.9215 38.556 64.0646C41.2559 65.6267 46.0409 64.4326 46.0869 69.4935C46.1278 74.1694 41.2883 80.8759 37.1183 82.0819C33.679 83.0767 30.17 83.8279 26.7205 84.7904C15.534 87.9094 8.16323 94.4216 6.42573 106.571C4.5809 119.471 4.41397 132.463 3.54521 145.417C3.32547 148.693 3.05803 151.965 2.78718 155.238C2.72927 155.946 3.00863 156.911 1.86392 157.043C0.826524 157.163 0.519905 156.468 0.543753 155.607C1.09226 136.159 -1.99096 116.343 5.60467 97.5832C9.22448 88.6435 15.3824 81.61 24.2539 77.3259C27.1838 75.912 29.0184 74.0093 30.2875 70.7608C32.5616 64.9385 36.408 60.2864 41.6 56.2595C47.93 51.3502 52.0728 44.4325 52.4714 35.9289C52.8087 28.7336 53.1306 21.5366 53.519 14.343C53.7779 9.57333 55.5563 5.29258 58.4862 0H58.4845ZM49.194 51.9975C55.4865 50.139 61.7517 48.4526 67.5298 45.4665C69.453 44.4717 71.7526 43.2145 70.6028 40.61C69.5773 38.2882 67.3151 37.6409 64.6833 38.1775C56.8918 39.7651 52.8461 45.5602 49.194 51.9975Z" fill="#1E1E1E"/>
    <path d="M51.8535 68.3744C51.6388 75.9683 50.518 83.4652 50.6611 91.0335C50.7888 97.7553 50.4243 104.501 50.8518 111.199C51.5588 122.252 61.0163 126.962 70.1416 121.048C71.5776 120.116 72.9488 119.057 73.5314 117.292C73.8312 116.382 74.1583 115.485 73.4377 114.664C72.7325 113.86 71.9915 114.555 71.3374 114.791C67.8607 116.05 64.4436 116.284 61.9293 113.127C59.4798 110.052 61.3365 106.889 62.4489 103.84C62.6618 103.256 62.9463 102.69 63.2631 102.154C64.9716 99.256 66.0874 95.4574 70.6185 96.2614C74.8976 97.0194 76.7135 100.147 77.5703 104.116C80.0369 115.526 73.8926 129.981 64.6412 134.378C54.8515 139.03 46.2321 134.095 45.9664 123.246C45.5439 106.082 44.9103 88.8634 49.6151 72.0385C49.9984 70.6672 50.2931 69.3436 51.8535 68.3778V68.3744Z" fill="#1E1E1E"/>
    <path d="M78.9655 81.053C78.9621 82.8637 74.2231 88.3488 72.5146 88.5191C71.5981 88.6094 65.4725 83.2027 65.4299 82.2675C65.384 81.2301 71.4039 74.5475 72.4651 74.4573C74.1652 74.3125 78.9672 79.186 78.9638 81.053H78.9655Z" fill="#1E1E1E"/>
    <path d="M7.16179 56.9391C7.16179 52.3467 9.78679 48.3896 12.7371 48.4117C17.4165 48.4458 17.2019 52.5204 17.701 55.3822C18.3312 59.0054 15.5103 61.8944 12.0711 61.7718C8.78857 61.6542 6.78192 60.1331 7.16349 56.9391H7.16179ZM15.8766 54.9478C16.219 52.8798 14.3963 52.3807 12.7201 52.1933C10.5567 51.9515 8.91804 53.6089 8.654 55.2919C8.39849 56.917 9.95202 58.3462 11.9996 58.2354C13.8921 58.1332 15.8255 57.9612 15.8783 54.9478H15.8766Z" fill="#1E1E1E"/>
    <path d="M76.9296 57.9458C72.7221 62.7239 66.9048 64.8498 61.2988 67.3471C65.5353 62.6558 71.2282 60.3068 76.9296 57.9458Z" fill="#1E1E1E"/>
</svg>
