<svg xmlns="http://www.w3.org/2000/svg" version="1.1" xmlns:xlink="http://www.w3.org/1999/xlink" width="512" height="512" x="0" y="0" viewBox="0 0 88 88" style="enable-background:new 0 0 512 512" xml:space="preserve" class="">
    <g>
        <path d="m80.996 85.91-6-66A1 1 0 0 0 74 19h-8.897l.159-1.754A14.919 14.919 0 0 0 44.78 2.1a14.85 14.85 0 0 0-20.402 12.449L23.974 19H14a1 1 0 0 0-.996.91l-6 66A1 1 0 0 0 8 87h72a1.028 1.028 0 0 0 .996-1.09ZM68 77.48l-8.783 6.177L64.914 21H68Zm.99 1.75L76.925 85h-16.14Zm9.815 4.664L70 77.491V21h3.087ZM50.426 3A12.897 12.897 0 0 1 63.27 17.065L63.095 19h-9.203l.159-1.754a14.745 14.745 0 0 0-6.775-13.85A13.051 13.051 0 0 1 50.426 3Zm1.458 16h-14.69l.387-4.27A12.828 12.828 0 0 1 44.79 4.286a12.824 12.824 0 0 1 7.27 12.78ZM26.37 14.73A12.83 12.83 0 0 1 42.302 3.393 14.829 14.829 0 0 0 35.59 14.55L35.185 19h-9.203ZM14.913 21h47.992l-5.818 64H9.095Z" fill="#000000" opacity="1" class=""></path>
    </g>
</svg>