<svg xmlns="http://www.w3.org/2000/svg" version="1.1" xmlns:xlink="http://www.w3.org/1999/xlink" width="512" height="512" x="0" y="0" viewBox="0 0 512 512" style="enable-background:new 0 0 512 512" xml:space="preserve" class="">
    <g>
        <g fill-rule="evenodd" stroke-miterlimit="10" clip-rule="evenodd">
            <path d="M101.197 0C66.749 0 38.589 28.16 38.589 62.608v412.825c0 29.631 35.173 47.216 58.877 29.438l140.366-105.274a30.196 30.196 0 0 1 36.34 0l140.364 105.274h.002c23.704 17.778 58.875.193 58.875-29.438V62.608C473.413 28.16 445.253 0 410.805 0zm0 22h309.608c22.558 0 40.608 18.05 40.608 40.608v412.825c0 12.887-13.367 19.57-23.676 11.838L287.37 381.998c-18.55-13.913-44.188-13.913-62.738 0L84.265 487.27c-10.31 7.732-23.676 1.049-23.676-11.838V62.608C60.589 40.05 78.639 22 101.197 22z" fill="#000000" opacity="1" class=""></path>
            <path d="M256.009 77.424c-8.996 0-15.392 5.855-19.503 11.389-4.11 5.533-7.052 11.833-9.877 18.09s-5.44 12.489-7.912 17.336c-2.472 4.848-5.198 8.078-5.593 8.366-.396.287-4.302 1.868-9.676 2.721-5.375.853-12.124 1.414-18.948 2.167-6.825.753-13.725 1.63-20.258 3.83-6.534 2.2-14.052 6.412-16.832 14.967s.795 16.452 4.787 22.072c3.993 5.62 9.083 10.397 14.161 15.018 5.079 4.62 10.214 9 14.06 12.85 3.846 3.85 6.098 7.447 6.249 7.912.151.465.396 4.704-.454 10.079-.85 5.375-2.386 11.922-3.78 18.645-1.392 6.723-2.692 13.567-2.62 20.46.073 6.894 1.794 15.374 9.071 20.662 7.277 5.287 15.847 4.278 22.425 2.217 6.58-2.06 12.682-5.366 18.646-8.768 5.964-3.402 11.73-6.955 16.58-9.424 4.85-2.469 8.984-3.477 9.474-3.477.489 0 4.574 1.008 9.423 3.477 4.85 2.469 10.616 6.021 16.58 9.424 5.963 3.402 12.067 6.707 18.646 8.768 6.578 2.061 15.198 3.07 22.475-2.217 7.278-5.287 8.948-13.768 9.02-20.662.073-6.893-1.177-13.736-2.57-20.46-1.392-6.723-2.98-13.27-3.83-18.645-.848-5.375-.554-9.614-.403-10.079.153-.465 2.403-4.063 6.25-7.912 3.846-3.849 8.98-8.23 14.06-12.85 5.078-4.62 10.116-9.398 14.11-15.018 3.992-5.62 7.617-13.467 4.837-22.022-2.779-8.555-10.348-12.817-16.882-15.017-6.533-2.2-13.383-3.077-20.207-3.83-6.825-.753-13.574-1.314-18.949-2.167s-9.33-2.434-9.726-2.721c-.395-.288-3.07-3.518-5.543-8.366-2.472-4.847-5.087-11.077-7.912-17.335-2.824-6.258-5.817-12.557-9.927-18.091-4.11-5.535-10.457-11.389-19.452-11.39zm0 21.971c-.948 0-.374-.425 1.814 2.52s4.874 8.173 7.508 14.01c2.635 5.836 5.308 12.295 8.366 18.292s6.13 11.734 12.246 16.177 12.501 5.596 19.15 6.652c6.647 1.055 13.64 1.615 20.006 2.318 6.364.702 12.144 1.651 15.622 2.822 3.477 1.17 3.266 1.859 2.973.957-.293-.9.26-.521-1.865 2.47s-6.249 7.18-10.986 11.49c-4.736 4.309-10.057 8.845-14.815 13.606-4.759 4.761-9.255 9.441-11.591 16.63-2.336 7.188-1.454 13.66-.403 20.308 1.05 6.65 2.682 13.434 3.98 19.704 1.3 6.27 2.207 12.054 2.168 15.723-.04 3.67-.767 3.682 0 3.125.766-.557.578.139-2.923-.958s-8.75-3.78-14.312-6.954c-5.561-3.173-11.538-6.823-17.537-9.877-5.998-3.055-11.843-5.896-19.401-5.896-7.559 0-13.453 2.842-19.452 5.896-6 3.053-11.925 6.704-17.487 9.877-5.562 3.173-10.81 5.858-14.312 6.954-3.501 1.097-3.74.4-2.973.958.767.557.089.544.05-3.125-.038-3.669.817-9.452 2.117-15.723 1.3-6.27 2.98-13.055 4.031-19.704 1.051-6.648 1.933-13.12-.403-20.308-2.335-7.189-6.883-11.868-11.64-16.63-4.759-4.762-10.03-9.297-14.766-13.606-4.736-4.31-8.911-8.5-11.036-11.49-2.125-2.991-1.522-3.421-1.815-2.52-.292.901-.504.263 2.974-.907 3.477-1.17 9.257-2.12 15.622-2.822s13.307-1.263 19.956-2.318c6.648-1.055 13.085-2.21 19.2-6.652 6.115-4.443 9.187-10.18 12.245-16.177 3.059-5.996 5.731-12.456 8.366-18.293 2.635-5.836 5.32-11.064 7.509-14.009 2.188-2.945 2.761-2.52 1.814-2.52z" fill="#000000" opacity="1" class=""></path>
        </g>
    </g>
</svg>