<svg width="512" height="512" x="0" y="0" viewBox="0 0 512 512" fill="none" xmlns="http://www.w3.org/2000/svg">
    <path d="M495.85 255.976C495.85 304.503 495.89 353.031 495.826 401.555C495.806 417.472 492.355 432.653 484.45 446.944C478.009 458.596 469.647 468.561 458.676 476.9C453.357 480.946 447.513 483.82 441.689 486.962C429.632 493.458 416.444 495.49 402.92 495.505C305.235 495.636 207.547 495.583 109.862 495.561C97.881 495.561 86.1084 493.767 75.2376 489.166C65.381 484.996 56.1576 479.584 48.3333 472.407C32.5041 457.892 22.5593 440.538 18.7072 420.123C17.3243 412.793 16.8393 405.46 16.8433 398.044C16.8714 302.869 16.8954 207.698 16.8233 112.522C16.8113 98.2836 19.2203 84.5101 25.0886 71.3731C29.5339 61.4189 35.6226 52.414 43.5713 44.4179C51.8246 36.1128 61.2884 29.7323 72.1191 24.5244C83.6392 18.9852 95.7646 16.532 108.327 16.5022C204.877 16.2938 301.423 16.3719 397.973 16.3496C403.537 16.3496 409.089 16.3868 414.608 17.1649C422.22 18.237 429.836 19.5361 436.843 22.503C448.042 27.2419 458.44 33.4698 466.866 41.7562C481.376 56.0211 490.812 72.8807 494.155 92.5322C495.305 99.2999 495.854 106.041 495.854 112.858C495.85 160.562 495.854 208.267 495.854 255.972L495.85 255.976ZM36.1237 255.726C36.1237 303.904 36.1317 352.078 36.1157 400.256C36.1157 407.087 36.6969 413.858 38.3965 420.51C40.8215 430.014 45.0103 438.71 50.9307 446.888C58.4144 457.226 68.3832 464.746 79.9875 470.288C89.6197 474.89 100.326 476.345 111.173 476.345C207.98 476.353 304.782 476.394 401.589 476.297C414.516 476.286 426.882 474.015 438.174 467.403C447.653 461.853 455.55 455.123 461.999 446.561C472.305 432.891 476.626 417.677 476.638 401.29C476.71 304.47 476.678 207.646 476.658 110.825C476.658 106.362 476.434 101.902 475.636 97.487C473.371 84.9679 468.485 73.5731 460.324 63.2132C452.796 53.6573 443.196 46.5695 432.097 41.4137C422.541 36.9727 411.919 35.6512 401.2 35.6512C304.65 35.6512 208.096 35.6512 111.546 35.6512C100.827 35.6512 90.217 37.0137 80.6529 41.4137C71.7383 45.5123 63.5451 50.8877 56.8631 58.0611C50.5459 64.8399 45.4232 72.2665 41.9359 80.5567C37.3783 91.3894 36.0355 102.754 36.0676 114.376C36.1959 161.493 36.1197 208.613 36.1237 255.73V255.726Z" fill="#050505"/>
    <path d="M256.196 433.934C232.082 433.934 207.967 433.904 183.853 433.964C179.564 433.975 175.756 433.275 173.539 429.482C171.202 425.484 171.828 421.489 174.437 417.871C175.68 416.147 177.7 414.964 180.085 414.71C181.336 414.58 182.602 414.521 183.861 414.521C232.218 414.513 280.571 414.684 328.925 414.368C338.573 414.305 342.746 422.788 339.527 428.834C337.438 432.757 334.023 433.949 329.674 433.945C305.179 433.923 280.688 433.934 256.192 433.934H256.196Z" fill="#050505"/>
</svg>
