<svg width="512" height="512" viewBox="0 0 512 512" fill="none" xmlns="http://www.w3.org/2000/svg">
    <defs>
        <clipPath id="clip0_376_4083">
            <rect width="512" height="512" fill="white"/>
        </clipPath>
    </defs>
    <g clip-path="url(#clip0_376_4083)">
        <path d="M29.0533 14.9986C29.0533 17.842 29.0557 20.6854 29.0519 23.5286C29.0508 24.4613 28.8485 25.3508 28.3854 26.1882C28.0079 26.8709 27.518 27.4548 26.8752 27.9434C26.5635 28.1805 26.2211 28.3489 25.8798 28.5329C25.1733 28.9136 24.4006 29.0327 23.6082 29.0335C17.8845 29.0412 12.1605 29.0381 6.43685 29.0368C5.73483 29.0368 5.04503 28.9317 4.40807 28.6621C3.83053 28.4178 3.2901 28.1006 2.83164 27.6801C1.90415 26.8296 1.32145 25.8128 1.09574 24.6166C1.01471 24.1871 0.986294 23.7574 0.986529 23.3229C0.988173 17.7463 0.989582 12.1698 0.985354 6.59314C0.98465 5.75883 1.1258 4.95178 1.46965 4.18204C1.73012 3.59879 2.08688 3.07115 2.55262 2.60263C3.03621 2.11601 3.59073 1.74215 4.22534 1.437C4.90035 1.11244 5.61082 0.968696 6.34689 0.966951C12.0041 0.954736 17.6611 0.959317 23.3184 0.958008C23.6444 0.958008 23.9696 0.960189 24.2931 1.00578C24.7391 1.06859 25.1853 1.14472 25.5959 1.31856C26.2521 1.59623 26.8613 1.96114 27.355 2.44668C28.2052 3.28251 28.7581 4.27038 28.954 5.42183C29.0214 5.81837 29.0536 6.21339 29.0536 6.61277C29.0533 9.40797 29.0536 12.2032 29.0536 14.9984L29.0533 14.9986ZM2.11624 14.984C2.11624 17.8069 2.11671 20.6296 2.11577 23.4525C2.11577 23.8527 2.14982 24.2495 2.24941 24.6393C2.3915 25.1961 2.63694 25.7057 2.98384 26.1849C3.42233 26.7906 4.00645 27.2312 4.68638 27.556C5.25077 27.8256 5.8781 27.9109 6.51365 27.9109C12.1859 27.9113 17.8579 27.9137 23.5302 27.908C24.2877 27.9074 25.0122 27.7743 25.6738 27.3869C26.2293 27.0617 26.692 26.6674 27.0699 26.1657C27.6737 25.3648 27.9269 24.4733 27.9276 23.5131C27.9319 17.8401 27.93 12.1668 27.9288 6.49367C27.9288 6.23215 27.9156 5.97084 27.8689 5.71215C27.7362 4.97861 27.4499 4.31095 26.9717 3.70392C26.5306 3.14401 25.9681 2.72871 25.3178 2.42661C24.7579 2.16639 24.1355 2.08896 23.5074 2.08896C17.8502 2.08896 12.1927 2.08896 6.53549 2.08896C5.90746 2.08896 5.28576 2.16879 4.72537 2.42661C4.20303 2.66676 3.72296 2.98172 3.33144 3.40204C2.96129 3.79924 2.66113 4.23439 2.45679 4.72014C2.18975 5.35487 2.11107 6.02079 2.11295 6.70176C2.12047 9.4625 2.116 12.2235 2.11624 14.9842V14.984Z" fill="#050505"/>
        <path d="M15.0111 25.4259C13.5982 25.4259 12.1852 25.4241 10.7723 25.4276C10.5209 25.4283 10.2978 25.3873 10.1679 25.165C10.031 24.9307 10.0677 24.6967 10.2205 24.4847C10.2934 24.3837 10.4117 24.3143 10.5515 24.2995C10.6248 24.2919 10.699 24.2884 10.7727 24.2884C13.6062 24.2879 16.4394 24.298 19.2725 24.2794C19.8379 24.2757 20.0824 24.7728 19.8938 25.1271C19.7714 25.357 19.5713 25.4267 19.3165 25.4265C17.8812 25.4252 16.4462 25.4259 15.0109 25.4259H15.0111Z" fill="#050505"/>
    </g>
</svg>
