<svg width="35" height="35" viewBox="0 0 35 35" fill="none" xmlns="http://www.w3.org/2000/svg">
<path d="M32.9644 9.64222C39.9072 23.0131 27.7029 38.0997 13.1539 34.4167C6.62285 32.7925 1.37285 27.1308 0.286246 20.4854C-0.949048 13.8742 2.03625 6.7713 7.61794 3.0311C15.2699 -2.23033 25.8728 -0.480334 31.3516 7.04581C31.3859 7.08012 31.3745 7.13731 31.3287 7.17163C31.2944 7.20594 31.2372 7.1945 31.2029 7.14875C30.448 6.17653 29.5902 5.29581 28.6523 4.50659C27.1081 3.19124 25.3009 2.16182 23.3908 1.46411C13.6686 -2.05876 2.99703 3.79744 0.869579 13.9657C-1.53238 25.3579 8.15553 35.8465 19.7078 34.2795C28.6179 33.1586 35.2405 24.9347 34.5085 15.9903C34.3483 13.8285 33.7764 11.6896 32.8271 9.72228C32.8042 9.68797 32.8271 9.64222 32.8614 9.61934C32.8957 9.59646 32.9415 9.6079 32.9644 9.64222Z" fill="black"/>
</svg>
