<svg width="35" height="35" viewBox="0 0 35 35" fill="none" xmlns="http://www.w3.org/2000/svg">
<mask id="mask0_376_4088" style="mask-type:alpha" maskUnits="userSpaceOnUse" x="0" y="0" width="35" height="35">
<circle cx="17.4426" cy="17.4426" r="17.4426" fill="#D9D9D9"/>
</mask>
<g mask="url(#mask0_376_4088)">
<path d="M27.0047 31.8432C26.9247 31.9004 26.8332 31.9576 26.7531 32.0148C26.6616 32.072 26.5815 32.1292 26.49 32.1749C26.41 32.2207 26.3413 32.2664 26.2613 32.3122C26.2498 32.3236 26.2384 32.3236 26.227 32.3351C25.9639 32.4952 25.6894 32.6439 25.4149 32.7811C25.3348 32.8269 25.2433 32.8726 25.1632 32.9069C25.1632 32.9069 25.1518 32.9184 25.1404 32.9184C25.0488 32.9641 24.9573 33.0099 24.8658 33.0556C24.6828 33.1471 24.4884 33.2272 24.3054 33.3073C24.2139 33.353 24.1109 33.3873 24.0194 33.4217C23.9279 33.456 23.825 33.5017 23.7335 33.536C23.642 33.5703 23.539 33.6161 23.4475 33.6504C23.4475 33.6504 23.4475 33.6504 23.4361 33.6504C23.3446 33.6847 23.2417 33.719 23.1502 33.7534C22.9443 33.822 22.7269 33.8906 22.5211 33.9592C22.4524 33.9821 22.3724 34.005 22.3037 34.0279C22.0864 34.0965 21.8691 34.1537 21.6518 34.1994C21.5717 34.2223 21.4917 34.2337 21.4002 34.2566C21.1943 34.3024 20.977 34.3481 20.7711 34.3939C20.7253 34.4053 20.691 34.4053 20.6453 34.4167C20.5766 34.4282 20.4966 34.4396 20.4279 34.4511C20.325 34.4625 20.2335 34.4854 20.1305 34.4968C20.0848 34.5083 20.039 34.5083 19.9933 34.5197C19.9361 34.5311 19.8675 34.5426 19.7988 34.5426C19.6158 34.5654 19.4214 34.5883 19.2384 34.6112C19.1812 34.6226 19.1126 34.6226 19.0554 34.6341H19.0439C18.9639 34.6455 18.8838 34.6455 18.8037 34.6569C18.7237 34.6684 18.6436 34.6684 18.5636 34.6684C18.5178 34.6684 18.4606 34.6798 18.4149 34.6798C18.3234 34.6798 18.2433 34.6913 18.1632 34.6913C18.0488 34.6913 17.9459 34.7027 17.8315 34.7027C17.7171 34.7027 17.6142 34.7027 17.4998 34.7027C17.4198 34.7027 17.3397 34.7027 17.2596 34.7027C12.4328 34.6341 8.09787 32.5867 4.99819 29.3383C4.99819 29.3383 4.99819 29.3269 4.98676 29.3269C4.64362 29.0181 4.941 27.371 6.32499 26.3301C8.06355 25.0148 12.227 24.1913 12.227 24.1913C12.227 24.1913 13.8397 23.9282 19.8217 25.1749C23.3217 25.9069 25.9868 26.9707 27.4737 29.853C27.7825 30.4478 28.0913 31.3628 27.0047 31.8432Z" fill="#EEDDCC"/>
<path d="M19.8563 25.0491C22.0523 25.4952 24.3971 25.9755 26.2043 27.4282C26.8105 27.92 27.2108 28.6406 27.5425 29.3383C27.7027 29.6814 27.8628 30.036 27.9886 30.4135C28.0572 30.6651 28.1602 30.951 28.103 31.2484C28.0915 31.3285 28.0229 31.4314 27.9657 31.4886C27.7027 31.7517 27.4167 31.9118 27.1308 32.1177C25.4494 33.2844 23.5164 34.1079 21.5148 34.5425C17.054 35.5148 12.2272 34.7599 8.30397 32.4151C7.00004 31.6259 5.79906 30.6651 4.76965 29.5327C4.65527 29.3955 4.65527 29.1667 4.65527 29.018C4.66671 28.6749 4.75821 28.3432 4.87259 28.0344C5.1471 27.3252 5.50168 26.6161 6.10789 26.1242C6.54253 25.8269 7.01148 25.5752 7.49187 25.3693C9.00168 24.7288 10.5915 24.2827 12.2272 24.0997C12.3644 24.0883 12.3873 24.2827 12.25 24.3056C10.6831 24.6259 9.1275 25.1063 7.67488 25.7582C7.14874 26.0213 6.58828 26.2501 6.16508 26.6618C5.76475 27.0965 5.4788 27.634 5.25004 28.1831C5.10135 28.5148 4.99841 29.0409 5.04416 29.304C5.76475 30.1618 6.61116 30.9167 7.52619 31.5687C12.536 35.0687 20.1422 35.2974 25.4723 32.3808C25.9527 32.1177 26.4216 31.8203 26.8677 31.5115C27.085 31.3628 27.3138 31.237 27.4853 31.0654C27.4968 31.054 27.4853 31.0654 27.4853 31.0769C27.4853 31.0883 27.4739 31.0997 27.4739 31.0997C27.4853 30.9625 27.4396 30.7795 27.3824 30.5965C27.1765 29.9331 26.8448 29.2353 26.4902 28.6291C25.9298 27.7255 24.9804 27.1536 24.0197 26.6961C23.3563 26.3873 22.6585 26.1471 21.9494 25.9184C21.2402 25.6896 20.5197 25.4952 19.7991 25.3236C19.6161 25.2778 19.6732 25.0148 19.8563 25.0491Z" fill="black"/>
<path d="M30.8024 38.9347H1.87598C1.87598 38.9347 3.58023 35.3432 4.33513 31.2484C4.86127 28.4118 5.25016 26.7533 6.72565 25.8383C7.7665 25.1978 9.99689 24.5344 10.9577 24.1913C11.6096 23.9625 11.7469 24.1569 12.2158 24.0311C12.2158 24.0883 12.2273 24.1341 12.2273 24.1913C12.2273 24.1913 13.4626 27.8628 16.6766 29.1667C19.2959 30.2305 20.8515 29.5213 21.0917 28.3432C21.2404 27.5883 20.7714 26.353 20.5312 25.9527C20.394 25.8383 20.3024 25.6667 20.2567 25.4952L20.1652 25.1177C20.3825 25.072 20.5884 25.0148 20.7943 24.9462C20.8629 24.9233 20.9201 24.9004 20.9887 24.8775C22.3041 25.2207 25.1178 26.3301 26.3645 27.4739C26.8564 27.9315 28.023 30.219 28.7779 33.536C29.6472 37.2991 30.8024 38.9347 30.8024 38.9347Z" fill="black"/>
<path d="M31.0654 39.0719C22.4527 39.1291 10.3628 39.2664 1.88732 39.232C1.68144 39.232 1.53275 39.0033 1.62425 38.8203C2.64222 36.5784 3.44288 34.1879 3.95758 31.7745C4.01477 31.4657 4.14059 30.8595 4.19778 30.5507C4.46085 29.2925 4.66673 28.0458 5.34157 26.8905C5.57033 26.5131 5.86771 26.1585 6.22229 25.8726C6.56543 25.5981 6.96575 25.3922 7.36608 25.2092C8.64713 24.6601 9.93961 24.2255 11.255 23.8252C11.5638 23.7565 11.8726 23.8366 12.17 23.768C12.3416 23.7222 12.5246 23.8481 12.536 24.0311L12.5475 24.1912L12.2386 23.9052C12.3644 23.9052 12.4788 23.9853 12.5131 24.0997C12.6046 24.3628 12.7305 24.6373 12.8563 24.9003C13.2452 25.6896 13.7256 26.433 14.3089 27.085C15.0752 27.9543 16.036 28.6405 17.1341 29.0294C18.2435 29.4412 20.2223 29.7958 20.7713 28.469C20.8628 28.2288 20.8514 27.9771 20.8171 27.7141C20.737 27.1765 20.554 26.6046 20.2909 26.1242L20.3481 26.1928C20.1651 25.9526 20.0965 25.6667 20.1193 25.3922V25.152V25.1177C20.1193 25.0948 20.1422 25.0719 20.1651 25.0719C20.3024 25.0262 20.4282 24.969 20.5654 24.9232C20.6912 24.866 20.8171 24.8088 20.9429 24.7402C20.9772 24.7173 21.0115 24.7288 21.0458 24.7402C21.8007 24.9347 22.5213 25.1977 23.2419 25.4951C24.3171 25.9412 25.3808 26.4445 26.3073 27.165C26.639 27.4052 26.8792 27.7598 27.0736 28.1144C27.4625 28.8007 27.7713 29.5098 28.0458 30.2304C28.5262 31.4886 28.8808 32.7925 29.1896 34.1079C29.5785 35.5605 30.0475 37.0016 30.768 38.3284C30.8481 38.4657 30.9282 38.603 31.0082 38.7402L31.0311 38.7631V38.7745C31.0997 38.8317 31.1112 38.9918 31.0654 39.0719ZM30.5393 38.7974C30.4821 38.8546 30.4935 39.0147 30.5393 39.0719V39.0605L30.5164 39.0262C29.7157 37.7108 29.2125 36.2353 28.8007 34.7598C28.5948 34.0392 28.4461 33.2614 28.2403 32.5294C27.8399 31.0882 27.3481 29.6356 26.6275 28.3203C26.5017 28.103 26.3644 27.8628 26.1929 27.6912C25.8612 27.3824 25.4723 27.1307 25.0834 26.8905C24.4429 26.5131 23.7566 26.1814 23.0589 25.8954C22.3612 25.6095 21.652 25.3464 20.9314 25.152L21.103 25.1405C20.7942 25.1634 20.4968 25.1748 20.1994 25.1634L20.2452 25.0948C20.3138 25.2092 20.3939 25.4036 20.4625 25.5065C20.5425 25.6095 20.6341 25.6896 20.737 25.7353C20.7599 25.7582 20.7827 25.7811 20.7942 25.8039C21.2059 26.5932 21.6177 27.7713 21.3203 28.652C20.6341 30.3791 18.335 30.1046 16.9282 29.567C15.7501 29.1667 14.6863 28.4003 13.8628 27.4624C13.0393 26.5245 12.3873 25.4494 11.9527 24.2827L12.2272 24.4771C12.0671 24.4771 11.9412 24.3628 11.9298 24.2026L11.9184 24.0539L12.2844 24.317C12.17 24.3513 12.0327 24.3628 11.9069 24.3742C11.5867 24.3628 11.3693 24.3513 11.072 24.4657C10.6831 24.603 10.2827 24.7402 9.88242 24.866C9.0932 25.1291 8.31543 25.4036 7.57196 25.7353C5.87915 26.4101 5.38732 27.7598 4.99843 29.4412C4.81543 30.219 4.66673 31.0997 4.5066 31.8889C3.98046 34.3595 3.17981 36.75 2.13896 39.0605L1.87588 38.6373C10.1684 38.6373 22.1324 38.7173 30.5393 38.7974Z" fill="black"/>
<path d="M15.6929 30.3677C11.7468 28.5948 10.2141 25.4265 10.5115 24.5686C10.5115 24.5686 10.5115 24.5572 10.523 24.5458C10.7288 24.1226 11.0605 23.7794 11.4723 23.5392C11.7011 23.402 11.9527 23.2762 12.1586 23.2075C15.2811 22.4298 19.4217 23.7451 20.8171 24.9461C21.3203 25.5523 21.8351 26.1585 22.0295 27.7598C22.304 30.0703 19.7762 32.2092 15.6929 30.3677Z" fill="#EEDDCC"/>
<path d="M15.636 30.4934C13.6572 29.6013 11.8043 28.2058 10.752 26.2728C10.5461 25.8725 10.3631 25.4608 10.3059 24.9918C10.2945 24.8317 10.2831 24.6372 10.3631 24.4771C10.6033 23.9967 11.038 23.6192 11.5184 23.3905C11.8844 23.196 12.2847 23.0588 12.685 22.933C13.2569 22.83 13.8288 22.7957 14.4121 22.8072C16.3223 22.8643 18.221 23.3676 19.9138 24.2483C20.0396 24.317 20.1654 24.3856 20.2912 24.4657C20.337 24.4885 20.3713 24.5228 20.4285 24.5114C20.4857 24.5 20.5314 24.5228 20.5772 24.5457C20.7144 24.6258 20.8288 24.7287 20.9546 24.8431C21.2635 25.2206 21.5723 25.6209 21.7782 26.0784C21.984 26.5359 22.0984 27.0277 22.1671 27.5081C22.3501 28.4918 22.0184 29.5898 21.252 30.2647C19.6965 31.6601 17.3631 31.2826 15.636 30.4934ZM15.7389 30.2532C17.02 30.8137 18.484 31.1683 19.8452 30.7336C20.9432 30.4019 21.8468 29.4068 21.8811 28.2402C21.8925 27.5539 21.7324 26.8333 21.4579 26.2042C21.3092 25.8153 20.8974 25.3235 20.6916 25.0719C20.5657 24.9689 20.4285 24.8889 20.3141 24.7859C20.3027 24.763 20.2912 24.7402 20.2798 24.7173C20.2569 24.6601 20.2112 24.6487 20.1769 24.6143C20.0625 24.5457 19.9367 24.4771 19.8108 24.4085C18.8157 23.8938 17.7177 23.5964 16.6197 23.3791C15.3386 23.1389 14.0233 23.0702 12.7308 23.2532C12.5478 23.2761 12.3533 23.2532 12.1703 23.299C12.0331 23.3562 11.7814 23.4706 11.6213 23.5849C11.2095 23.8251 10.9007 24.1797 10.6834 24.6029L10.672 24.6143C10.672 24.6258 10.6605 24.6487 10.6605 24.6601C10.6033 25.1405 10.8321 25.6323 11.0494 26.0784C11.2438 26.4444 11.4726 26.799 11.7357 27.1421C12.788 28.5032 14.1948 29.5555 15.7389 30.2532Z" fill="black"/>
<path d="M20.9311 28.0915C20.6909 29.2696 19.1354 29.9787 16.5161 28.915C13.7938 27.817 12.6157 25.1977 12.3184 24.4199C13.9311 21.4003 12.8102 19.3072 12.8102 19.3072C16.5275 18.9869 19.7759 23.3333 19.7759 23.3333L20.2791 25.4836C20.3249 25.6666 20.4164 25.8268 20.5537 25.9411C20.7938 26.3643 21.0798 27.3366 20.9311 28.0915Z" fill="#EEDDCC"/>
<path d="M12.2609 24.4542C12.4782 24.1225 12.6155 23.7337 12.707 23.3562C12.8785 22.567 12.9357 21.7663 12.9472 20.9657V20.6683C12.9129 20.3709 12.8099 20.0621 12.6955 19.7876C12.5468 19.4216 13.0844 19.1928 13.256 19.5588C13.2789 19.6046 13.2789 19.6846 13.2789 19.7304C13.3132 21.2859 13.3818 23.2876 12.3981 24.5801C12.3295 24.6487 12.1923 24.5458 12.2609 24.4542Z" fill="black"/>
<path d="M19.9013 23.3104C20.0728 23.4134 20.13 23.5506 20.1529 23.6879C20.2215 23.9624 20.1987 24.2598 20.2673 24.5457C20.3245 24.8202 20.496 25.0833 20.5418 25.3692C20.599 25.6666 20.7705 26.2957 20.8392 26.6045C20.862 26.6732 20.8163 26.7532 20.7362 26.7647C20.6905 26.7761 20.6562 26.7647 20.6219 26.7418C20.4732 26.616 20.4045 26.4902 20.313 26.33C20.1643 26.0555 20.0614 25.8039 19.9699 25.4951C19.8898 25.2206 19.9241 24.9232 19.8555 24.6372C19.7983 24.3627 19.6382 24.0996 19.581 23.8137C19.5467 23.6764 19.5353 23.5277 19.6382 23.3562C19.7068 23.2875 19.8212 23.2647 19.9013 23.3104Z" fill="black"/>
<path d="M20.7251 26.33C18.5405 26.2156 16.7561 25.5294 15.0176 22.4297C16.4816 23.7222 18.2088 24.214 20.0274 24.4428L20.2676 25.495C20.3133 25.6781 20.5878 26.2156 20.7251 26.33Z" fill="black"/>
<path d="M20.633 25.9069C21.0219 26.6389 21.2507 27.5539 21.0105 28.366C20.8275 28.9379 20.3013 29.3611 19.7295 29.5212C18.4027 29.8758 16.87 29.3154 15.6919 28.6863C14.2393 27.8742 13.1641 26.5131 12.4778 25.0261C12.4321 24.9118 12.5922 24.8203 12.6608 24.9346C12.901 25.415 13.1755 25.884 13.4844 26.3072C13.7932 26.7418 14.1478 27.1422 14.5481 27.4967C15.7147 28.549 17.2932 29.201 18.8716 29.201C20.4958 29.1552 21.1134 28.2974 20.736 26.719C20.6788 26.4673 20.5873 26.2043 20.4615 25.9869C20.3929 25.8954 20.5644 25.7925 20.633 25.9069Z" fill="black"/>
<path d="M25.0605 12.1699C25.2664 13.1307 25.3694 13.9085 24.8089 16.4706C24.2599 19.0212 25.3236 21.5948 22.6243 23.9395C20.8056 25.518 17.6259 25.8154 15.0867 24.0882C14.2288 23.5049 14.0001 20.7827 13.3252 19.7418C13.0393 19.3072 12.8677 20.0049 12.2158 19.2843C11.3122 18.3006 10.2256 16.3219 10.7632 12.8219C11.6324 7.14869 16.1275 6.48529 19.456 7.11438C22.7958 7.74346 24.5115 9.64215 25.0605 12.1699Z" fill="#EEDDCC"/>
<path d="M12.7759 20.2908C12.5128 19.8562 12.1811 19.4787 11.8723 19.0784C11.4147 18.4607 11.0716 17.7516 10.8428 17.0196C9.85919 13.8856 10.3853 9.80224 13.2906 7.84636C15.9785 6.02773 21.1141 6.57675 23.4703 8.77283C24.6484 9.83655 25.3004 11.3807 25.4376 12.9362C25.5062 13.9771 25.2546 14.9836 25.0373 15.9901C24.7857 16.9738 24.7285 17.9575 24.7285 18.9754C24.717 19.9934 24.6713 21.0571 24.2824 22.0179C23.6876 23.482 22.4409 24.6715 20.9425 25.1748C18.9752 25.8611 16.6533 25.4722 15.0406 24.1568C14.9719 24.0996 15.0406 24.0081 15.1206 24.0424C17.2366 25.2434 20.0161 25.4493 22.0749 24.0653C23.2987 23.2418 24.1451 21.9379 24.3396 20.4738C24.4997 19.4787 24.454 18.4722 24.5455 17.4656C24.5798 17.0196 24.7056 16.4019 24.7971 15.9558C24.9344 15.2124 25.0259 14.4689 25.0144 13.7254C25.003 12.9934 24.8428 12.2728 24.6255 11.5751C23.8706 9.09309 21.7089 7.62904 19.2154 7.22871C15.4866 6.57675 12.2268 7.96074 11.2546 11.8382C10.8314 13.7369 10.4997 15.83 11.3004 17.6715C11.5863 18.3692 12.0553 18.964 12.5928 19.4787L13.119 20.0392C13.3477 20.2679 12.9589 20.5653 12.7759 20.2908Z" fill="black"/>
<path d="M14.1254 16.6535C14.1254 16.6535 13.7708 14.9379 12.1009 15.1437C10.6597 15.3267 10.1565 18.781 13.4277 19.7418" fill="#EEDDCC"/>
<path d="M13.2795 18.2434C13.0164 18.0947 12.8334 17.8431 12.822 17.5342C12.8334 17.3055 12.8677 17.0424 12.8105 16.8137C12.7762 16.5963 12.5475 16.5391 12.3759 16.5506C12.1929 16.5849 12.0785 16.8137 12.0442 16.9967C12.0442 17.0081 12.0328 17.0424 12.0328 17.0539C12.0213 17.111 11.9298 17.111 11.907 17.0539C11.7583 16.6078 12.09 16.1159 12.5704 16.1731C13.2452 16.2189 13.3367 16.928 13.2109 17.4656C13.1422 17.6944 13.2337 17.9003 13.3596 18.0947L13.3824 18.129C13.4396 18.1976 13.3481 18.2891 13.2795 18.2434Z" fill="black"/>
<path d="M22.4299 15.4411C22.6014 16.2532 22.9217 17.0081 23.322 17.7172C23.6766 18.5865 22.7616 19.41 21.9495 19.3757C21.858 19.3757 21.8465 19.2499 21.9266 19.227C22.4413 19.0669 22.9103 18.7238 22.9903 18.1976C23.0246 18.0375 22.9789 17.9002 22.8988 17.763C22.5214 17.0538 22.2926 16.2417 22.3498 15.4411C22.3498 15.3839 22.4299 15.3839 22.4299 15.4411Z" fill="black"/>
<path d="M14.0686 16.665C13.8055 15.9902 13.2336 15.3497 12.4673 15.3611C12.3986 15.3497 12.2843 15.3726 12.2156 15.3726C12.0212 15.384 11.8611 15.4526 11.7124 15.5899C10.9803 16.3219 11.1062 17.6144 11.7009 18.4265C11.9068 18.7124 12.1699 18.9641 12.4673 19.1699C12.7647 19.3758 13.0964 19.536 13.4509 19.6732C13.531 19.6961 13.4967 19.8219 13.4166 19.8105C12.6503 19.6503 11.9182 19.2729 11.415 18.6438C10.6372 17.7059 10.4771 16.1389 11.4035 15.2239C11.6094 15.0409 11.8954 14.9036 12.1813 14.9036C12.2728 14.9036 12.4101 14.8807 12.5016 14.9036C12.982 14.9265 13.4395 15.1667 13.7369 15.5441C13.9999 15.8644 14.1486 16.2533 14.1944 16.6422C14.1944 16.7108 14.0914 16.7337 14.0686 16.665Z" fill="black"/>
<path d="M21.5608 20.5196C20.8288 21.2173 19.4448 20.6569 19.0788 19.8105C19.033 19.7075 19.1474 19.616 19.2389 19.6618C19.4333 19.7647 19.6049 19.8676 19.7879 19.9477C20.3141 20.1879 20.8631 20.3823 21.4464 20.3252C21.5608 20.3023 21.6409 20.4395 21.5608 20.5196Z" fill="black"/>
<path d="M18.1634 16.6078C17.8888 16.5964 17.683 16.3676 17.7058 16.0931L17.7173 15.7729C17.7287 15.4983 17.9575 15.2925 18.232 15.3153C18.5065 15.3268 18.7124 15.5555 18.6895 15.83L18.6781 16.1503C18.6666 16.4134 18.4379 16.6193 18.1634 16.6078Z" fill="black"/>
<path d="M22.9791 16.7794C22.7274 16.768 22.533 16.5507 22.5444 16.299L22.5559 16.0016C22.5673 15.75 22.7846 15.5556 23.0363 15.567C23.2879 15.5784 23.4823 15.7958 23.4709 16.0474L23.4595 16.3448C23.448 16.5964 23.2307 16.7909 22.9791 16.7794Z" fill="black"/>
<path d="M19.1934 15.9902C18.8159 15.7385 18.4041 15.567 17.9466 15.6585C17.7979 15.6814 17.6492 15.7271 17.5577 15.83C17.5234 15.8758 17.4434 15.8644 17.4434 15.7957C17.4548 15.567 17.6492 15.4183 17.8322 15.3268C18.1868 15.1438 18.6787 15.1781 18.9989 15.4183C19.1133 15.4869 19.5022 15.9101 19.2963 16.0016C19.2505 16.0245 19.2277 16.0131 19.1934 15.9902Z" fill="black"/>
<path d="M22.4648 16.0474C22.4648 15.567 23.0596 15.3954 23.4256 15.567C23.6315 15.6585 23.7802 15.8415 23.8374 16.0588C23.8603 16.1274 23.7573 16.1846 23.7116 16.1274C23.5171 15.8987 23.1854 15.7843 22.9224 15.9215C22.8423 15.9673 22.8309 16.0016 22.808 16.0474C22.808 16.2761 22.4763 16.2647 22.4648 16.0474Z" fill="black"/>
<path d="M19.7422 14.1029C19.9824 14.183 20.2226 13.9657 20.1769 13.7026C20.154 13.5653 20.0968 13.4281 19.9824 13.3251C19.6393 13.0163 18.221 12.7418 17.3631 13.1421C16.6082 13.5081 18.6442 13.7369 19.7422 14.1029Z" fill="black"/>
<path d="M23.1618 14.2859C22.9673 14.3545 22.7615 14.1486 22.7958 13.9084C22.8072 13.7826 22.853 13.6568 22.9445 13.5653C23.219 13.2908 24.1569 13.0735 24.7516 13.4967C25.2664 13.8512 24.0539 13.9542 23.1618 14.2859Z" fill="black"/>
<path d="M22.7954 11.0948C23.0356 11.2206 23.2414 11.1062 23.3673 10.8546C24.6941 10.6487 25.0029 13.3023 25.0486 13.4624C25.1973 14.0686 25.998 14.183 26.2954 13.6454C27.1075 12.1585 27.6336 10.0653 25.3346 8.76142C25.6205 8.33822 25.4146 6.23364 23.0241 5.71894C22.1663 5.53593 21.0454 6.33658 19.6385 6.02776C14.1369 4.8039 8.42936 5.97057 8.87543 13.2336C8.97838 14.8235 9.08132 16.5392 6.38197 17.683C3.24798 19.0098 3.40811 22.4755 5.61563 23.1846C6.53066 23.482 3.51106 25.5408 5.27249 27.3709C6.18753 28.3317 7.82315 26.3872 9.48164 27.4395C11.9865 29.0294 13.2333 28.3088 13.7251 27.6797C14.7316 26.3987 13.4849 23.8251 13.4849 23.8251C13.4849 23.8251 13.9767 23.0359 14.1369 22.6127C14.9146 20.531 13.0617 19.5931 13.0617 19.5931C10.2022 18.4951 10.7169 15.3039 12.1124 15.1209C13.5764 14.9379 14.0339 16.2418 14.114 16.5621C14.114 16.5621 15.4065 18.3464 17.8999 14.2745C20.3705 10.214 21.7088 10.5114 22.7954 11.0948Z" fill="black"/>
<path d="M19.9824 18.0147C19.9824 18.0147 18.9072 18.6896 17.6948 18.6781C16.4824 18.6667 16.3337 17.7173 16.3223 17.2026C16.3223 17.2026 16.4824 17.9461 17.2144 18.2206C17.935 18.4951 19.9824 18.0147 19.9824 18.0147Z" fill="black"/>
<path d="M23.4365 17.8889C23.4365 17.8889 23.6996 18.2092 24.0542 18.4379C24.2944 18.5981 24.6146 18.4265 24.6146 18.1406C24.6146 18.1406 23.9512 18.1749 23.4365 17.8889Z" fill="black"/>
<path d="M20.3826 14.9608C19.7649 14.9036 18.2094 14.7778 17.6146 14.7206L17.1571 14.6863C16.7796 14.6634 16.4823 14.9837 16.4136 15.3497C16.3908 15.4641 16.3908 15.6585 16.3908 15.7729V16.2419C16.3908 16.5278 16.3793 16.8252 16.4823 17.0997C16.6653 17.7402 17.2486 18.2549 17.9349 18.1749C18.0035 18.1634 18.4267 18.1177 18.5068 18.1063L19.4332 18.0033C19.7306 17.9804 20.0051 17.9004 20.2682 17.7402C20.6342 17.5229 20.9888 17.1912 20.9659 16.7223L20.9888 16.2647C21.0117 15.6929 21.1718 15.018 20.3826 14.9608ZM20.4169 14.5834C20.9545 14.6291 21.3205 15.1896 21.2862 15.7043C21.2862 15.7729 21.2633 16.2076 21.2519 16.2876C21.2519 16.3791 21.229 16.7909 21.2176 16.871C21.1604 17.6487 20.2911 18.1978 19.5819 18.3007C19.2159 18.3464 18.4496 18.4494 18.0836 18.4951C17.9921 18.5066 17.8663 18.518 17.7747 18.5295C17.729 18.5295 17.6261 18.518 17.5803 18.518C16.6081 18.3922 15.9904 17.3971 16.0133 16.4706C16.0133 16.3219 16.0133 15.9331 16.0133 15.7729C16.0133 15.6929 16.0133 15.487 16.0247 15.4069C16.0591 15.0066 16.2764 14.6177 16.6424 14.4004C16.8025 14.3089 16.997 14.2631 17.1914 14.2746L17.6604 14.3203C18.2323 14.3889 19.8107 14.5376 20.4169 14.5834Z" fill="black"/>
<path d="M23.0702 14.7664C23.3219 14.7321 24.5572 14.5948 24.7859 14.5719C24.8431 14.5719 24.9918 14.5491 25.0376 14.5491C25.5294 14.4804 25.7581 15.018 25.8039 15.4183C25.8268 15.7729 25.8039 16.1161 25.8153 16.4592C25.8153 16.6994 25.7925 16.9396 25.7353 17.1683C25.5866 17.786 25.1519 18.4379 24.4313 18.2321C24.2598 18.1978 23.9166 18.152 23.7565 18.1177L23.5849 18.0834C23.2532 18.0262 22.9787 17.7974 22.7957 17.5458C22.4526 17.1455 22.5212 16.6079 22.4869 16.1275C22.4412 15.6471 22.4526 14.9036 23.0702 14.7664ZM23.116 15.0981C22.7614 15.2582 22.8529 15.7958 22.8529 16.1161L22.8758 16.8023C22.8872 17.237 23.2304 17.6716 23.6421 17.786C23.7451 17.8089 24.031 17.8661 24.1454 17.8889L24.4771 17.9576C25.3006 18.2206 25.6209 17.0768 25.6095 16.4478C25.5751 15.9216 25.7353 15.2925 25.3578 14.8693C25.2663 14.7778 25.1748 14.7549 25.0719 14.7778C25.0147 14.7893 24.866 14.8121 24.8202 14.8236C24.5915 14.8693 23.3562 15.0638 23.116 15.0981Z" fill="black"/>
<path d="M16.196 15.8301C16.1045 16.036 16.0244 16.0131 15.8643 16.0131L15.5326 16.0017C15.1094 15.9788 14.6404 15.9445 14.2172 15.8873C13.9885 15.853 13.7483 15.8187 13.5195 15.7615C13.428 15.7386 13.3708 15.6471 13.3937 15.5556C13.4166 15.4756 13.4852 15.4184 13.5653 15.4298L14.2287 15.4641L14.8921 15.487C15.1094 15.4984 15.6699 15.5099 15.8872 15.5213C16.0016 15.5213 16.1045 15.5327 16.2189 15.4984C16.2646 15.487 16.3104 15.5099 16.3218 15.5556C16.3333 15.5785 16.3218 15.5899 16.3218 15.6128L16.196 15.8301Z" fill="black"/>
<path d="M21.0682 15.5899C21.4799 15.3611 22.5665 15.0409 22.7724 15.6585C22.8639 15.8187 22.6237 15.9673 22.5208 15.8072C22.5208 15.8301 22.4636 15.8072 22.4407 15.8072C22.0061 15.7729 21.56 15.8415 21.1254 15.8758C20.9424 15.8987 20.908 15.6585 21.0682 15.5899Z" fill="black"/>
<path d="M32.9644 9.64222C39.9072 23.0131 27.7029 38.0997 13.1539 34.4167C6.62285 32.7925 1.37285 27.1308 0.286246 20.4854C-0.949048 13.8742 2.03625 6.7713 7.61794 3.0311C15.2699 -2.23033 25.8728 -0.480334 31.3516 7.04581C31.3859 7.08012 31.3745 7.13731 31.3287 7.17163C31.2944 7.20594 31.2372 7.1945 31.2029 7.14875C30.448 6.17653 29.5902 5.29581 28.6523 4.50659C27.1081 3.19124 25.3009 2.16182 23.3908 1.46411C13.6686 -2.05876 2.99703 3.79744 0.869579 13.9657C-1.53238 25.3579 8.15553 35.8465 19.7078 34.2795C28.6179 33.1586 35.2405 24.9347 34.5085 15.9903C34.3483 13.8285 33.7764 11.6896 32.8271 9.72228C32.8042 9.68797 32.8271 9.64222 32.8614 9.61934C32.8957 9.59646 32.9415 9.6079 32.9644 9.64222Z" fill="black"/>
</g>
</svg>
